<?xml version="1.0" encoding="UTF-8"?>
<svg xmlns="http://www.w3.org/2000/svg" width="1707" height="1280" viewBox="0 0 1707 1280" role="img" aria-label="Bark&amp;Bar four-toe logo">
<!--
Bark&Bar logo vectorized from the corrected four-toe version.
Source edit: original paw's five toe beans were cleaned and redrawn as four evenly distributed toe beans.
Vectorization method: foreground color contour tracing; text is converted to vector paths (no font dependency).
-->

<path d="M 1023.0 633.0 L 1021.0 633.0 L 1019.0 635.0 L 1015.0 637.0 L 1013.0 637.0 L 1010.0 639.0 L 1007.0 639.0 L 1006.0 640.0 L 997.0 640.0 L 996.0 642.0 L 997.0 643.0 L 997.0 648.0 L 998.0 649.0 L 998.0 656.0 L 997.0 657.0 L 997.0 660.0 L 996.0 661.0 L 996.0 663.0 L 993.0 669.0 L 989.0 673.0 L 989.0 674.0 L 987.0 675.0 L 983.0 679.0 L 977.0 682.0 L 975.0 682.0 L 974.0 683.0 L 970.0 683.0 L 969.0 684.0 L 967.0 684.0 L 966.0 683.0 L 960.0 683.0 L 959.0 682.0 L 954.0 681.0 L 950.0 678.0 L 947.0 677.0 L 938.0 669.0 L 935.0 669.0 L 934.0 670.0 L 932.0 670.0 L 928.0 672.0 L 924.0 672.0 L 923.0 673.0 L 920.0 673.0 L 919.0 674.0 L 916.0 674.0 L 915.0 675.0 L 909.0 675.0 L 908.0 676.0 L 902.0 676.0 L 901.0 677.0 L 889.0 677.0 L 888.0 678.0 L 863.0 678.0 L 862.0 677.0 L 849.0 677.0 L 848.0 676.0 L 839.0 676.0 L 838.0 675.0 L 831.0 675.0 L 830.0 674.0 L 825.0 674.0 L 824.0 673.0 L 818.0 673.0 L 817.0 672.0 L 812.0 672.0 L 811.0 671.0 L 807.0 671.0 L 806.0 670.0 L 803.0 670.0 L 800.0 668.0 L 792.0 668.0 L 791.0 667.0 L 781.0 667.0 L 780.0 666.0 L 745.0 666.0 L 744.0 667.0 L 737.0 667.0 L 736.0 668.0 L 730.0 668.0 L 729.0 667.0 L 725.0 671.0 L 723.0 672.0 L 721.0 672.0 L 718.0 674.0 L 716.0 674.0 L 715.0 675.0 L 710.0 676.0 L 707.0 678.0 L 705.0 678.0 L 699.0 681.0 L 697.0 683.0 L 696.0 683.0 L 690.0 689.0 L 688.0 693.0 L 688.0 697.0 L 689.0 698.0 L 689.0 700.0 L 690.0 702.0 L 693.0 705.0 L 697.0 707.0 L 706.0 707.0 L 707.0 706.0 L 712.0 706.0 L 713.0 705.0 L 718.0 705.0 L 719.0 704.0 L 724.0 704.0 L 725.0 703.0 L 735.0 703.0 L 736.0 702.0 L 776.0 702.0 L 777.0 703.0 L 788.0 703.0 L 789.0 704.0 L 797.0 704.0 L 798.0 705.0 L 805.0 705.0 L 806.0 706.0 L 814.0 706.0 L 815.0 707.0 L 823.0 707.0 L 824.0 708.0 L 831.0 708.0 L 832.0 709.0 L 840.0 709.0 L 841.0 710.0 L 850.0 710.0 L 851.0 711.0 L 864.0 711.0 L 865.0 712.0 L 897.0 712.0 L 898.0 711.0 L 911.0 711.0 L 912.0 710.0 L 920.0 710.0 L 921.0 709.0 L 926.0 709.0 L 927.0 708.0 L 932.0 708.0 L 933.0 707.0 L 938.0 707.0 L 939.0 706.0 L 941.0 706.0 L 942.0 705.0 L 945.0 705.0 L 946.0 704.0 L 949.0 704.0 L 950.0 703.0 L 952.0 703.0 L 953.0 702.0 L 955.0 702.0 L 956.0 701.0 L 961.0 700.0 L 966.0 697.0 L 968.0 697.0 L 978.0 692.0 L 980.0 690.0 L 983.0 689.0 L 986.0 686.0 L 987.0 686.0 L 994.0 680.0 L 995.0 680.0 L 1005.0 670.0 L 1005.0 669.0 L 1008.0 666.0 L 1008.0 665.0 L 1012.0 660.0 L 1021.0 642.0 L 1021.0 640.0 L 1022.0 639.0 L 1022.0 634.0 Z
M 677.0 334.0 L 675.0 338.0 L 675.0 345.0 L 676.0 346.0 L 676.0 348.0 L 678.0 352.0 L 680.0 354.0 L 682.0 358.0 L 692.0 368.0 L 693.0 368.0 L 696.0 371.0 L 697.0 371.0 L 702.0 375.0 L 704.0 375.0 L 706.0 377.0 L 708.0 377.0 L 713.0 380.0 L 715.0 380.0 L 718.0 382.0 L 720.0 382.0 L 724.0 384.0 L 727.0 387.0 L 728.0 386.0 L 733.0 386.0 L 734.0 387.0 L 747.0 387.0 L 748.0 388.0 L 768.0 388.0 L 769.0 387.0 L 778.0 387.0 L 779.0 386.0 L 785.0 386.0 L 786.0 385.0 L 792.0 385.0 L 793.0 384.0 L 797.0 384.0 L 798.0 385.0 L 800.0 385.0 L 804.0 382.0 L 807.0 382.0 L 808.0 381.0 L 814.0 381.0 L 815.0 380.0 L 821.0 380.0 L 822.0 379.0 L 837.0 379.0 L 838.0 378.0 L 864.0 378.0 L 865.0 379.0 L 876.0 379.0 L 877.0 380.0 L 882.0 380.0 L 883.0 381.0 L 888.0 381.0 L 889.0 382.0 L 892.0 382.0 L 893.0 383.0 L 895.0 383.0 L 896.0 384.0 L 899.0 384.0 L 902.0 386.0 L 904.0 386.0 L 916.0 392.0 L 918.0 394.0 L 919.0 394.0 L 922.0 397.0 L 923.0 397.0 L 932.0 407.0 L 934.0 412.0 L 936.0 414.0 L 936.0 416.0 L 939.0 422.0 L 939.0 426.0 L 940.0 427.0 L 940.0 448.0 L 939.0 449.0 L 939.0 453.0 L 938.0 454.0 L 938.0 456.0 L 937.0 457.0 L 937.0 459.0 L 935.0 462.0 L 935.0 464.0 L 934.0 466.0 L 932.0 468.0 L 930.0 472.0 L 922.0 481.0 L 921.0 481.0 L 918.0 484.0 L 917.0 484.0 L 912.0 488.0 L 900.0 494.0 L 898.0 494.0 L 895.0 496.0 L 892.0 496.0 L 888.0 498.0 L 885.0 498.0 L 884.0 499.0 L 881.0 499.0 L 880.0 500.0 L 876.0 500.0 L 875.0 501.0 L 869.0 501.0 L 868.0 502.0 L 860.0 502.0 L 859.0 503.0 L 847.0 503.0 L 846.0 504.0 L 804.0 504.0 L 804.0 530.0 L 805.0 531.0 L 805.0 533.0 L 811.0 533.0 L 812.0 532.0 L 860.0 532.0 L 861.0 533.0 L 870.0 533.0 L 872.0 531.0 L 874.0 527.0 L 882.0 519.0 L 883.0 519.0 L 885.0 517.0 L 889.0 515.0 L 893.0 515.0 L 894.0 514.0 L 896.0 515.0 L 900.0 515.0 L 904.0 517.0 L 906.0 519.0 L 910.0 521.0 L 914.0 525.0 L 914.0 526.0 L 916.0 528.0 L 917.0 528.0 L 920.0 525.0 L 920.0 524.0 L 923.0 521.0 L 923.0 520.0 L 932.0 511.0 L 933.0 511.0 L 936.0 508.0 L 942.0 505.0 L 951.0 505.0 L 959.0 509.0 L 963.0 505.0 L 964.0 505.0 L 972.0 498.0 L 973.0 498.0 L 985.0 486.0 L 985.0 485.0 L 992.0 477.0 L 1002.0 457.0 L 1002.0 455.0 L 1003.0 454.0 L 1003.0 451.0 L 1004.0 450.0 L 1004.0 447.0 L 1005.0 446.0 L 1005.0 442.0 L 1006.0 441.0 L 1006.0 433.0 L 1007.0 432.0 L 1007.0 422.0 L 1006.0 421.0 L 1006.0 414.0 L 1005.0 413.0 L 1005.0 408.0 L 1004.0 407.0 L 1003.0 400.0 L 1002.0 399.0 L 1002.0 397.0 L 1001.0 396.0 L 1001.0 394.0 L 999.0 391.0 L 999.0 389.0 L 998.0 387.0 L 996.0 385.0 L 994.0 380.0 L 989.0 374.0 L 989.0 373.0 L 986.0 370.0 L 986.0 369.0 L 973.0 356.0 L 972.0 356.0 L 968.0 352.0 L 967.0 352.0 L 961.0 347.0 L 958.0 346.0 L 956.0 344.0 L 940.0 336.0 L 938.0 336.0 L 932.0 333.0 L 929.0 333.0 L 928.0 332.0 L 926.0 332.0 L 922.0 330.0 L 919.0 330.0 L 918.0 329.0 L 915.0 329.0 L 914.0 328.0 L 911.0 328.0 L 910.0 327.0 L 907.0 327.0 L 906.0 326.0 L 901.0 326.0 L 900.0 325.0 L 896.0 325.0 L 895.0 324.0 L 889.0 324.0 L 888.0 323.0 L 882.0 323.0 L 881.0 322.0 L 869.0 322.0 L 868.0 321.0 L 833.0 321.0 L 832.0 322.0 L 817.0 322.0 L 816.0 323.0 L 803.0 323.0 L 802.0 324.0 L 792.0 324.0 L 791.0 325.0 L 781.0 325.0 L 780.0 326.0 L 771.0 326.0 L 770.0 327.0 L 758.0 327.0 L 757.0 328.0 L 746.0 328.0 L 745.0 329.0 L 704.0 329.0 L 703.0 328.0 L 697.0 328.0 L 696.0 327.0 L 686.0 327.0 L 682.0 329.0 Z
M 900.0 364.0 L 897.0 367.0 L 894.0 367.0 L 893.0 366.0 L 889.0 366.0 L 888.0 365.0 L 885.0 365.0 L 884.0 364.0 L 876.0 364.0 L 875.0 363.0 L 865.0 363.0 L 864.0 362.0 L 832.0 362.0 L 831.0 363.0 L 819.0 363.0 L 818.0 364.0 L 810.0 364.0 L 809.0 365.0 L 801.0 365.0 L 800.0 366.0 L 791.0 366.0 L 790.0 367.0 L 780.0 367.0 L 779.0 368.0 L 743.0 368.0 L 742.0 367.0 L 737.0 367.0 L 736.0 366.0 L 732.0 366.0 L 731.0 365.0 L 728.0 365.0 L 727.0 364.0 L 725.0 364.0 L 724.0 363.0 L 719.0 362.0 L 713.0 359.0 L 711.0 357.0 L 710.0 357.0 L 704.0 351.0 L 703.0 348.0 L 706.0 345.0 L 708.0 345.0 L 709.0 344.0 L 711.0 345.0 L 720.0 345.0 L 721.0 346.0 L 734.0 346.0 L 735.0 347.0 L 761.0 347.0 L 762.0 346.0 L 776.0 346.0 L 777.0 345.0 L 789.0 345.0 L 790.0 344.0 L 805.0 344.0 L 806.0 343.0 L 832.0 343.0 L 833.0 342.0 L 840.0 342.0 L 841.0 343.0 L 858.0 343.0 L 859.0 344.0 L 866.0 344.0 L 867.0 345.0 L 871.0 345.0 L 872.0 346.0 L 874.0 346.0 L 875.0 347.0 L 878.0 347.0 L 884.0 350.0 L 886.0 350.0 L 890.0 352.0 L 892.0 354.0 L 893.0 354.0 L 898.0 359.0 Z" fill="#a63a24" fill-rule="evenodd"/>
<path d="M 880.0 939.0 L 879.0 940.0 L 879.0 942.0 L 877.0 946.0 L 875.0 948.0 L 873.0 952.0 L 874.0 954.0 L 875.0 954.0 L 875.0 953.0 L 878.0 949.0 L 879.0 944.0 L 881.0 941.0 Z
M 835.0 939.0 L 833.0 943.0 L 833.0 945.0 L 829.0 953.0 L 831.0 953.0 L 834.0 948.0 L 834.0 945.0 L 835.0 944.0 L 835.0 941.0 L 836.0 940.0 Z
M 1221.0 951.0 L 1221.0 952.0 L 1224.0 952.0 L 1225.0 953.0 L 1256.0 953.0 L 1256.0 951.0 L 1241.0 951.0 L 1240.0 950.0 L 1240.0 941.0 L 1241.0 940.0 L 1251.0 940.0 L 1252.0 939.0 L 1251.0 938.0 L 1226.0 938.0 L 1227.0 940.0 L 1236.0 940.0 L 1238.0 942.0 L 1238.0 949.0 L 1236.0 951.0 Z
M 1177.0 952.0 L 1177.0 954.0 L 1179.0 954.0 L 1180.0 953.0 L 1185.0 952.0 L 1188.0 950.0 L 1190.0 950.0 L 1194.0 947.0 L 1197.0 947.0 L 1206.0 952.0 L 1208.0 952.0 L 1212.0 954.0 L 1214.0 953.0 L 1214.0 952.0 L 1212.0 951.0 L 1210.0 951.0 L 1209.0 950.0 L 1206.0 950.0 L 1200.0 947.0 L 1198.0 945.0 L 1198.0 943.0 L 1202.0 939.0 L 1204.0 935.0 L 1202.0 935.0 L 1202.0 936.0 L 1196.0 943.0 L 1195.0 943.0 L 1189.0 937.0 L 1189.0 936.0 L 1187.0 935.0 L 1186.0 936.0 L 1192.0 942.0 L 1193.0 945.0 L 1191.0 947.0 L 1185.0 950.0 L 1183.0 950.0 L 1180.0 952.0 Z
M 1024.0 933.0 L 1024.0 934.0 L 1026.0 936.0 L 1028.0 940.0 L 1031.0 943.0 L 1031.0 941.0 L 1030.0 939.0 L 1027.0 936.0 L 1027.0 935.0 L 1025.0 933.0 Z
M 848.0 933.0 L 839.0 933.0 L 839.0 934.0 L 843.0 934.0 L 845.0 936.0 L 845.0 939.0 L 842.0 943.0 L 842.0 944.0 L 839.0 947.0 L 837.0 951.0 L 840.0 950.0 L 841.0 948.0 L 844.0 945.0 L 847.0 939.0 L 847.0 937.0 L 848.0 936.0 Z
M 649.0 933.0 L 643.0 933.0 L 642.0 932.0 L 633.0 932.0 L 632.0 933.0 L 612.0 933.0 L 612.0 935.0 L 649.0 935.0 Z
M 705.0 931.0 L 705.0 932.0 L 719.0 932.0 L 720.0 933.0 L 723.0 933.0 L 724.0 935.0 L 722.0 936.0 L 722.0 939.0 L 721.0 940.0 L 705.0 940.0 L 704.0 941.0 L 704.0 954.0 L 706.0 954.0 L 708.0 952.0 L 727.0 952.0 L 729.0 954.0 L 730.0 954.0 L 730.0 940.0 L 725.0 940.0 L 724.0 939.0 L 724.0 937.0 L 727.0 934.0 L 728.0 931.0 Z
M 706.0 943.0 L 707.0 942.0 L 727.0 942.0 L 728.0 943.0 L 728.0 949.0 L 727.0 950.0 L 707.0 950.0 L 706.0 949.0 Z
M 673.0 930.0 L 673.0 954.0 L 675.0 954.0 L 675.0 930.0 Z
M 1275.0 928.0 L 1275.0 947.0 L 1290.0 947.0 L 1290.0 928.0 Z
M 1276.0 940.0 L 1278.0 938.0 L 1287.0 938.0 L 1288.0 939.0 L 1288.0 944.0 L 1286.0 946.0 L 1279.0 946.0 L 1277.0 944.0 L 1276.0 942.0 Z
M 1277.0 930.0 L 1278.0 929.0 L 1287.0 929.0 L 1288.0 930.0 L 1288.0 936.0 L 1287.0 937.0 L 1278.0 937.0 L 1277.0 936.0 Z
M 1243.0 928.0 L 1243.0 929.0 L 1245.0 931.0 L 1252.0 934.0 L 1254.0 936.0 L 1256.0 936.0 L 1256.0 935.0 L 1254.0 933.0 L 1251.0 932.0 L 1247.0 929.0 L 1245.0 929.0 Z
M 1235.0 928.0 L 1233.0 928.0 L 1231.0 929.0 L 1229.0 931.0 L 1226.0 932.0 L 1221.0 936.0 L 1224.0 936.0 L 1225.0 935.0 L 1227.0 935.0 L 1229.0 933.0 L 1233.0 931.0 L 1235.0 929.0 Z
M 873.0 928.0 L 873.0 929.0 L 878.0 934.0 L 880.0 934.0 L 880.0 933.0 L 876.0 929.0 Z
M 828.0 928.0 L 829.0 930.0 L 832.0 933.0 L 834.0 933.0 L 836.0 934.0 L 836.0 933.0 L 832.0 929.0 L 830.0 928.0 Z
M 1200.0 927.0 L 1200.0 928.0 L 1202.0 930.0 L 1203.0 930.0 L 1209.0 936.0 L 1211.0 937.0 L 1213.0 936.0 L 1208.0 931.0 L 1207.0 931.0 L 1202.0 927.0 Z
M 1190.0 927.0 L 1186.0 929.0 L 1181.0 934.0 L 1180.0 934.0 L 1178.0 936.0 L 1179.0 937.0 L 1182.0 936.0 L 1190.0 929.0 Z
M 595.0 927.0 L 589.0 930.0 L 588.0 930.0 L 587.0 928.0 L 585.0 929.0 L 585.0 937.0 L 586.0 938.0 L 586.0 946.0 L 585.0 947.0 L 585.0 950.0 L 587.0 950.0 L 588.0 949.0 L 587.0 948.0 L 587.0 937.0 L 588.0 936.0 L 588.0 934.0 L 592.0 930.0 L 595.0 930.0 L 596.0 929.0 Z
M 561.0 928.0 L 561.0 929.0 L 568.0 929.0 L 569.0 930.0 L 571.0 930.0 L 573.0 932.0 L 574.0 934.0 L 574.0 936.0 L 573.0 937.0 L 562.0 937.0 L 560.0 939.0 L 559.0 939.0 L 557.0 942.0 L 557.0 946.0 L 558.0 948.0 L 560.0 950.0 L 563.0 950.0 L 564.0 951.0 L 566.0 950.0 L 569.0 950.0 L 572.0 948.0 L 573.0 948.0 L 574.0 950.0 L 576.0 950.0 L 576.0 933.0 L 574.0 929.0 L 570.0 927.0 L 563.0 927.0 Z
M 572.0 938.0 L 573.0 939.0 L 573.0 945.0 L 570.0 948.0 L 568.0 949.0 L 563.0 949.0 L 560.0 946.0 L 560.0 941.0 L 562.0 939.0 L 568.0 939.0 L 569.0 938.0 Z
M 473.0 927.0 L 471.0 928.0 L 469.0 928.0 L 467.0 930.0 L 466.0 930.0 L 465.0 928.0 L 463.0 928.0 L 463.0 950.0 L 465.0 950.0 L 465.0 935.0 L 468.0 931.0 L 473.0 930.0 L 474.0 929.0 Z
M 439.0 929.0 L 447.0 929.0 L 451.0 933.0 L 451.0 936.0 L 450.0 937.0 L 441.0 937.0 L 437.0 939.0 L 435.0 941.0 L 435.0 947.0 L 438.0 950.0 L 441.0 950.0 L 442.0 951.0 L 443.0 950.0 L 446.0 950.0 L 449.0 948.0 L 451.0 948.0 L 453.0 951.0 L 454.0 950.0 L 454.0 934.0 L 453.0 933.0 L 453.0 931.0 L 450.0 928.0 L 448.0 927.0 L 442.0 927.0 Z
M 450.0 938.0 L 451.0 939.0 L 451.0 944.0 L 448.0 947.0 L 446.0 948.0 L 444.0 948.0 L 443.0 949.0 L 441.0 948.0 L 439.0 948.0 L 438.0 947.0 L 438.0 941.0 L 441.0 939.0 L 443.0 939.0 L 444.0 938.0 Z
M 1048.0 932.0 L 1048.0 933.0 L 1057.0 933.0 L 1058.0 934.0 L 1058.0 938.0 L 1057.0 939.0 L 1057.0 941.0 L 1052.0 947.0 L 1052.0 948.0 L 1047.0 952.0 L 1047.0 954.0 L 1049.0 954.0 L 1049.0 953.0 L 1053.0 949.0 L 1054.0 949.0 L 1054.0 948.0 L 1058.0 943.0 L 1058.0 941.0 L 1059.0 940.0 L 1060.0 935.0 L 1062.0 933.0 L 1064.0 933.0 L 1066.0 935.0 L 1066.0 944.0 L 1061.0 948.0 L 1056.0 950.0 L 1056.0 951.0 L 1058.0 951.0 L 1062.0 949.0 L 1065.0 949.0 L 1067.0 953.0 L 1081.0 953.0 L 1083.0 949.0 L 1083.0 947.0 L 1082.0 946.0 L 1081.0 947.0 L 1081.0 949.0 L 1077.0 952.0 L 1071.0 952.0 L 1068.0 950.0 L 1068.0 947.0 L 1071.0 944.0 L 1074.0 943.0 L 1079.0 938.0 L 1076.0 938.0 L 1071.0 943.0 L 1069.0 943.0 L 1068.0 942.0 L 1068.0 937.0 L 1067.0 935.0 L 1070.0 933.0 L 1072.0 934.0 L 1082.0 934.0 L 1083.0 933.0 L 1082.0 932.0 L 1074.0 932.0 L 1073.0 931.0 L 1073.0 928.0 L 1070.0 926.0 L 1070.0 927.0 L 1072.0 929.0 L 1072.0 931.0 L 1071.0 932.0 L 1062.0 932.0 L 1061.0 931.0 L 1061.0 926.0 L 1060.0 926.0 L 1060.0 930.0 L 1058.0 932.0 Z
M 974.0 926.0 L 977.0 932.0 L 979.0 934.0 L 978.0 932.0 L 978.0 930.0 L 976.0 926.0 Z
M 765.0 926.0 L 767.0 929.0 L 769.0 929.0 L 769.0 928.0 L 767.0 926.0 Z
M 744.0 932.0 L 744.0 933.0 L 751.0 933.0 L 754.0 935.0 L 754.0 938.0 L 751.0 944.0 L 748.0 947.0 L 748.0 948.0 L 743.0 953.0 L 742.0 953.0 L 743.0 954.0 L 744.0 954.0 L 747.0 951.0 L 749.0 950.0 L 753.0 952.0 L 755.0 950.0 L 759.0 948.0 L 760.0 948.0 L 762.0 950.0 L 762.0 952.0 L 763.0 953.0 L 766.0 953.0 L 767.0 954.0 L 773.0 954.0 L 774.0 953.0 L 776.0 953.0 L 778.0 951.0 L 778.0 946.0 L 777.0 946.0 L 777.0 948.0 L 776.0 950.0 L 772.0 952.0 L 767.0 952.0 L 764.0 950.0 L 764.0 947.0 L 770.0 942.0 L 771.0 942.0 L 774.0 939.0 L 774.0 937.0 L 767.0 943.0 L 764.0 943.0 L 763.0 942.0 L 763.0 935.0 L 764.0 934.0 L 766.0 934.0 L 767.0 933.0 L 769.0 934.0 L 778.0 934.0 L 779.0 933.0 L 778.0 932.0 L 758.0 932.0 L 757.0 931.0 L 757.0 926.0 L 755.0 926.0 L 755.0 931.0 L 754.0 932.0 Z
M 760.0 933.0 L 762.0 935.0 L 762.0 943.0 L 761.0 944.0 L 761.0 946.0 L 760.0 947.0 L 757.0 947.0 L 751.0 950.0 L 750.0 948.0 L 755.0 939.0 L 755.0 937.0 L 756.0 935.0 L 758.0 933.0 Z
M 716.0 925.0 L 717.0 927.0 L 719.0 928.0 L 719.0 926.0 Z
M 1266.0 924.0 L 1266.0 954.0 L 1268.0 954.0 L 1268.0 924.0 Z
M 994.0 924.0 L 989.0 934.0 L 991.0 934.0 L 992.0 933.0 L 992.0 931.0 L 994.0 927.0 Z
M 842.0 925.0 L 842.0 926.0 L 850.0 926.0 L 851.0 927.0 L 851.0 932.0 L 852.0 933.0 L 852.0 949.0 L 850.0 952.0 L 846.0 952.0 L 845.0 953.0 L 846.0 954.0 L 852.0 954.0 L 853.0 953.0 L 853.0 938.0 L 854.0 937.0 L 855.0 937.0 L 857.0 939.0 L 859.0 944.0 L 865.0 950.0 L 867.0 950.0 L 866.0 948.0 L 861.0 943.0 L 861.0 942.0 L 858.0 939.0 L 857.0 937.0 L 857.0 935.0 L 859.0 934.0 L 863.0 930.0 L 864.0 927.0 L 862.0 927.0 L 862.0 928.0 L 857.0 933.0 L 856.0 933.0 L 854.0 931.0 L 854.0 926.0 L 851.0 924.0 L 844.0 924.0 Z
M 532.0 921.0 L 531.0 922.0 L 531.0 950.0 L 544.0 950.0 L 545.0 949.0 L 547.0 949.0 L 550.0 945.0 L 550.0 939.0 L 548.0 937.0 L 548.0 936.0 L 546.0 935.0 L 546.0 934.0 L 549.0 931.0 L 549.0 925.0 L 546.0 922.0 L 544.0 921.0 Z
M 533.0 938.0 L 535.0 936.0 L 543.0 936.0 L 545.0 937.0 L 548.0 940.0 L 548.0 944.0 L 544.0 948.0 L 535.0 948.0 L 533.0 946.0 Z
M 534.0 924.0 L 535.0 923.0 L 544.0 923.0 L 546.0 925.0 L 546.0 931.0 L 544.0 934.0 L 535.0 934.0 L 534.0 933.0 Z
M 507.0 922.0 L 505.0 926.0 L 505.0 928.0 L 506.0 929.0 L 506.0 931.0 L 507.0 933.0 L 501.0 940.0 L 501.0 947.0 L 503.0 949.0 L 505.0 949.0 L 506.0 950.0 L 513.0 950.0 L 516.0 948.0 L 520.0 948.0 L 523.0 950.0 L 525.0 950.0 L 525.0 949.0 L 520.0 945.0 L 524.0 936.0 L 522.0 937.0 L 521.0 940.0 L 519.0 942.0 L 517.0 942.0 L 513.0 938.0 L 512.0 936.0 L 512.0 933.0 L 516.0 931.0 L 518.0 928.0 L 518.0 925.0 L 517.0 923.0 L 515.0 921.0 L 509.0 921.0 Z
M 507.0 936.0 L 509.0 936.0 L 516.0 944.0 L 516.0 946.0 L 512.0 949.0 L 509.0 949.0 L 508.0 948.0 L 506.0 948.0 L 503.0 945.0 L 503.0 942.0 L 504.0 941.0 L 504.0 939.0 Z
M 510.0 923.0 L 514.0 923.0 L 516.0 925.0 L 515.0 927.0 L 515.0 929.0 L 512.0 932.0 L 510.0 932.0 L 508.0 930.0 L 508.0 925.0 Z
M 409.0 921.0 L 409.0 950.0 L 421.0 950.0 L 422.0 949.0 L 424.0 949.0 L 427.0 946.0 L 428.0 944.0 L 428.0 941.0 L 427.0 940.0 L 427.0 938.0 L 423.0 935.0 L 423.0 934.0 L 425.0 932.0 L 426.0 932.0 L 427.0 930.0 L 427.0 926.0 L 426.0 924.0 L 422.0 921.0 Z
M 411.0 938.0 L 413.0 936.0 L 420.0 936.0 L 422.0 937.0 L 425.0 940.0 L 426.0 943.0 L 423.0 947.0 L 421.0 947.0 L 420.0 948.0 L 412.0 948.0 L 411.0 947.0 Z
M 411.0 925.0 L 413.0 923.0 L 420.0 923.0 L 424.0 926.0 L 424.0 930.0 L 421.0 934.0 L 412.0 934.0 L 411.0 933.0 Z
M 1278.0 919.0 L 1278.0 921.0 L 1295.0 921.0 L 1297.0 923.0 L 1297.0 949.0 L 1295.0 952.0 L 1290.0 952.0 L 1291.0 954.0 L 1296.0 954.0 L 1299.0 950.0 L 1299.0 920.0 L 1298.0 919.0 Z
M 996.0 919.0 L 974.0 919.0 L 974.0 920.0 L 982.0 920.0 L 984.0 922.0 L 984.0 928.0 L 983.0 929.0 L 983.0 937.0 L 982.0 938.0 L 973.0 938.0 L 972.0 939.0 L 972.0 940.0 L 981.0 940.0 L 983.0 942.0 L 983.0 954.0 L 985.0 954.0 L 985.0 942.0 L 987.0 940.0 L 998.0 940.0 L 997.0 938.0 L 986.0 938.0 L 985.0 937.0 L 985.0 922.0 L 987.0 920.0 L 996.0 920.0 Z
M 875.0 918.0 L 875.0 919.0 L 880.0 924.0 L 882.0 924.0 L 882.0 923.0 L 878.0 919.0 Z
M 831.0 918.0 L 831.0 919.0 L 834.0 922.0 L 837.0 923.0 L 837.0 922.0 L 834.0 919.0 Z
M 481.0 918.0 L 480.0 919.0 L 480.0 950.0 L 482.0 950.0 L 482.0 942.0 L 484.0 939.0 L 486.0 940.0 L 486.0 941.0 L 492.0 949.0 L 494.0 950.0 L 496.0 950.0 L 496.0 949.0 L 491.0 944.0 L 491.0 943.0 L 488.0 940.0 L 487.0 937.0 L 495.0 929.0 L 495.0 928.0 L 493.0 928.0 L 488.0 933.0 L 488.0 934.0 L 486.0 936.0 L 483.0 937.0 L 482.0 936.0 L 482.0 918.0 Z
M 1268.0 917.0 L 1268.0 918.0 L 1272.0 922.0 L 1272.0 923.0 L 1274.0 923.0 L 1272.0 919.0 Z
M 1222.0 921.0 L 1222.0 925.0 L 1223.0 926.0 L 1223.0 928.0 L 1224.0 928.0 L 1224.0 924.0 L 1225.0 923.0 L 1252.0 923.0 L 1253.0 924.0 L 1253.0 926.0 L 1252.0 927.0 L 1253.0 928.0 L 1255.0 928.0 L 1255.0 922.0 L 1254.0 921.0 L 1241.0 921.0 L 1239.0 918.0 L 1239.0 916.0 L 1237.0 916.0 L 1238.0 919.0 L 1236.0 921.0 Z
M 1177.0 923.0 L 1196.0 923.0 L 1197.0 924.0 L 1204.0 923.0 L 1205.0 924.0 L 1212.0 924.0 L 1212.0 922.0 L 1199.0 922.0 L 1196.0 919.0 L 1196.0 917.0 L 1195.0 916.0 L 1194.0 916.0 L 1194.0 919.0 L 1195.0 920.0 L 1194.0 922.0 L 1178.0 922.0 Z
M 1158.0 916.0 L 1158.0 928.0 L 1157.0 929.0 L 1150.0 929.0 L 1150.0 930.0 L 1152.0 931.0 L 1157.0 931.0 L 1158.0 932.0 L 1158.0 949.0 L 1157.0 950.0 L 1153.0 950.0 L 1152.0 951.0 L 1147.0 951.0 L 1148.0 952.0 L 1170.0 952.0 L 1171.0 951.0 L 1170.0 950.0 L 1161.0 950.0 L 1160.0 949.0 L 1160.0 932.0 L 1161.0 931.0 L 1169.0 931.0 L 1169.0 929.0 L 1162.0 929.0 L 1160.0 927.0 L 1160.0 916.0 Z
M 1139.0 916.0 L 1139.0 918.0 L 1141.0 921.0 L 1141.0 923.0 L 1140.0 924.0 L 1134.0 924.0 L 1134.0 925.0 L 1135.0 926.0 L 1143.0 926.0 L 1144.0 928.0 L 1142.0 930.0 L 1140.0 934.0 L 1132.0 941.0 L 1134.0 942.0 L 1137.0 939.0 L 1139.0 939.0 L 1140.0 940.0 L 1140.0 954.0 L 1142.0 954.0 L 1142.0 938.0 L 1144.0 937.0 L 1149.0 941.0 L 1149.0 939.0 L 1147.0 937.0 L 1146.0 937.0 L 1142.0 934.0 L 1144.0 929.0 L 1147.0 926.0 L 1147.0 925.0 L 1146.0 924.0 L 1144.0 924.0 L 1142.0 922.0 L 1141.0 917.0 Z
M 1092.0 924.0 L 1092.0 925.0 L 1104.0 925.0 L 1107.0 927.0 L 1107.0 935.0 L 1106.0 936.0 L 1094.0 936.0 L 1093.0 937.0 L 1094.0 938.0 L 1106.0 938.0 L 1107.0 939.0 L 1107.0 949.0 L 1105.0 951.0 L 1090.0 951.0 L 1090.0 952.0 L 1127.0 952.0 L 1127.0 951.0 L 1125.0 951.0 L 1124.0 950.0 L 1123.0 951.0 L 1111.0 951.0 L 1109.0 949.0 L 1109.0 940.0 L 1111.0 938.0 L 1123.0 938.0 L 1124.0 937.0 L 1123.0 936.0 L 1111.0 936.0 L 1109.0 934.0 L 1109.0 926.0 L 1110.0 925.0 L 1125.0 925.0 L 1125.0 924.0 L 1123.0 924.0 L 1122.0 923.0 L 1111.0 923.0 L 1107.0 916.0 L 1106.0 916.0 L 1106.0 918.0 L 1108.0 922.0 L 1106.0 924.0 Z
M 1049.0 921.0 L 1049.0 928.0 L 1051.0 928.0 L 1051.0 924.0 L 1052.0 923.0 L 1067.0 923.0 L 1068.0 922.0 L 1077.0 922.0 L 1080.0 924.0 L 1080.0 927.0 L 1081.0 927.0 L 1081.0 923.0 L 1082.0 922.0 L 1082.0 921.0 L 1069.0 921.0 L 1066.0 919.0 L 1065.0 916.0 L 1064.0 916.0 L 1065.0 918.0 L 1065.0 920.0 L 1064.0 921.0 Z
M 1012.0 916.0 L 1012.0 918.0 L 1010.0 922.0 L 1007.0 924.0 L 1005.0 924.0 L 1005.0 953.0 L 1007.0 953.0 L 1008.0 952.0 L 1010.0 952.0 L 1011.0 953.0 L 1012.0 952.0 L 1015.0 952.0 L 1016.0 953.0 L 1018.0 953.0 L 1018.0 932.0 L 1020.0 930.0 L 1022.0 931.0 L 1024.0 927.0 L 1026.0 925.0 L 1035.0 925.0 L 1036.0 926.0 L 1036.0 950.0 L 1033.0 952.0 L 1029.0 952.0 L 1029.0 954.0 L 1034.0 954.0 L 1036.0 953.0 L 1038.0 950.0 L 1038.0 923.0 L 1028.0 923.0 L 1027.0 922.0 L 1027.0 920.0 L 1028.0 919.0 L 1028.0 916.0 L 1027.0 916.0 L 1026.0 917.0 L 1025.0 922.0 L 1022.0 928.0 L 1021.0 929.0 L 1019.0 929.0 L 1018.0 928.0 L 1018.0 923.0 L 1013.0 923.0 L 1012.0 922.0 L 1012.0 919.0 L 1013.0 918.0 L 1013.0 916.0 Z
M 1008.0 938.0 L 1016.0 938.0 L 1017.0 939.0 L 1017.0 949.0 L 1015.0 951.0 L 1009.0 951.0 L 1007.0 949.0 L 1007.0 939.0 Z
M 1008.0 925.0 L 1015.0 925.0 L 1017.0 927.0 L 1017.0 935.0 L 1015.0 937.0 L 1008.0 937.0 L 1007.0 936.0 L 1007.0 926.0 Z
M 966.0 916.0 L 965.0 916.0 L 965.0 926.0 L 964.0 927.0 L 960.0 927.0 L 960.0 929.0 L 964.0 929.0 L 965.0 930.0 L 965.0 944.0 L 963.0 946.0 L 960.0 947.0 L 959.0 948.0 L 960.0 949.0 L 962.0 948.0 L 964.0 948.0 L 965.0 947.0 L 968.0 947.0 L 972.0 945.0 L 972.0 944.0 L 970.0 945.0 L 968.0 945.0 L 967.0 944.0 L 967.0 930.0 L 968.0 929.0 L 971.0 929.0 L 972.0 928.0 L 971.0 927.0 L 968.0 927.0 L 967.0 926.0 L 967.0 917.0 Z
M 916.0 921.0 L 918.0 922.0 L 926.0 922.0 L 928.0 924.0 L 930.0 922.0 L 939.0 922.0 L 941.0 924.0 L 941.0 926.0 L 940.0 927.0 L 922.0 927.0 L 921.0 928.0 L 921.0 936.0 L 922.0 937.0 L 921.0 939.0 L 921.0 941.0 L 931.0 941.0 L 934.0 943.0 L 934.0 945.0 L 932.0 947.0 L 919.0 947.0 L 918.0 946.0 L 916.0 946.0 L 915.0 948.0 L 932.0 948.0 L 934.0 950.0 L 933.0 955.0 L 936.0 955.0 L 935.0 954.0 L 935.0 951.0 L 937.0 948.0 L 953.0 948.0 L 953.0 947.0 L 945.0 947.0 L 944.0 946.0 L 936.0 946.0 L 935.0 945.0 L 935.0 943.0 L 937.0 941.0 L 948.0 941.0 L 948.0 938.0 L 947.0 937.0 L 948.0 935.0 L 948.0 933.0 L 947.0 932.0 L 948.0 929.0 L 946.0 927.0 L 942.0 927.0 L 941.0 926.0 L 941.0 924.0 L 943.0 922.0 L 952.0 922.0 L 952.0 920.0 L 943.0 920.0 L 941.0 918.0 L 941.0 917.0 L 940.0 917.0 L 940.0 919.0 L 938.0 921.0 L 935.0 921.0 L 934.0 920.0 L 930.0 920.0 L 929.0 919.0 L 929.0 916.0 L 928.0 916.0 L 926.0 920.0 L 917.0 920.0 Z
M 923.0 937.0 L 925.0 935.0 L 944.0 935.0 L 946.0 937.0 L 946.0 938.0 L 944.0 940.0 L 925.0 940.0 L 923.0 938.0 Z
M 923.0 930.0 L 925.0 928.0 L 939.0 928.0 L 940.0 929.0 L 943.0 928.0 L 945.0 930.0 L 945.0 932.0 L 943.0 934.0 L 926.0 934.0 L 923.0 931.0 Z
M 896.0 916.0 L 895.0 917.0 L 895.0 927.0 L 892.0 929.0 L 889.0 929.0 L 888.0 928.0 L 888.0 921.0 L 887.0 920.0 L 886.0 922.0 L 886.0 924.0 L 887.0 925.0 L 887.0 929.0 L 884.0 932.0 L 883.0 932.0 L 883.0 933.0 L 885.0 933.0 L 886.0 934.0 L 886.0 950.0 L 888.0 953.0 L 907.0 953.0 L 909.0 952.0 L 909.0 950.0 L 910.0 949.0 L 910.0 945.0 L 908.0 945.0 L 908.0 948.0 L 907.0 950.0 L 904.0 952.0 L 898.0 952.0 L 897.0 951.0 L 890.0 951.0 L 888.0 949.0 L 888.0 933.0 L 890.0 931.0 L 892.0 930.0 L 894.0 930.0 L 895.0 931.0 L 895.0 945.0 L 896.0 946.0 L 897.0 945.0 L 897.0 930.0 L 899.0 928.0 L 901.0 927.0 L 903.0 927.0 L 904.0 928.0 L 904.0 938.0 L 902.0 940.0 L 900.0 940.0 L 900.0 941.0 L 901.0 942.0 L 904.0 942.0 L 906.0 938.0 L 906.0 924.0 L 904.0 924.0 L 903.0 925.0 L 898.0 926.0 L 897.0 925.0 L 897.0 917.0 Z
M 847.0 916.0 L 847.0 917.0 L 850.0 918.0 L 855.0 922.0 L 857.0 921.0 L 857.0 920.0 L 851.0 917.0 L 849.0 917.0 Z
M 805.0 916.0 L 805.0 918.0 L 804.0 919.0 L 803.0 924.0 L 800.0 929.0 L 800.0 932.0 L 802.0 930.0 L 803.0 927.0 L 805.0 925.0 L 807.0 925.0 L 808.0 926.0 L 808.0 929.0 L 807.0 930.0 L 807.0 932.0 L 804.0 938.0 L 800.0 942.0 L 799.0 942.0 L 799.0 944.0 L 800.0 945.0 L 803.0 942.0 L 804.0 939.0 L 806.0 937.0 L 806.0 935.0 L 809.0 929.0 L 809.0 926.0 L 810.0 925.0 L 813.0 925.0 L 814.0 926.0 L 814.0 929.0 L 813.0 930.0 L 813.0 933.0 L 812.0 934.0 L 812.0 936.0 L 810.0 939.0 L 810.0 941.0 L 809.0 943.0 L 807.0 945.0 L 807.0 946.0 L 801.0 952.0 L 802.0 953.0 L 804.0 952.0 L 810.0 945.0 L 813.0 939.0 L 813.0 937.0 L 814.0 936.0 L 814.0 933.0 L 815.0 932.0 L 815.0 926.0 L 816.0 925.0 L 818.0 925.0 L 819.0 926.0 L 819.0 944.0 L 818.0 945.0 L 818.0 949.0 L 816.0 951.0 L 811.0 952.0 L 811.0 953.0 L 817.0 953.0 L 819.0 952.0 L 820.0 950.0 L 820.0 939.0 L 821.0 938.0 L 821.0 924.0 L 820.0 923.0 L 808.0 923.0 L 806.0 924.0 L 805.0 923.0 L 806.0 916.0 Z
M 793.0 916.0 L 793.0 923.0 L 791.0 925.0 L 789.0 924.0 L 789.0 921.0 L 787.0 920.0 L 787.0 926.0 L 786.0 927.0 L 786.0 932.0 L 785.0 933.0 L 785.0 934.0 L 787.0 933.0 L 788.0 931.0 L 788.0 928.0 L 789.0 927.0 L 792.0 927.0 L 793.0 928.0 L 793.0 934.0 L 792.0 935.0 L 792.0 938.0 L 789.0 940.0 L 786.0 940.0 L 785.0 941.0 L 786.0 942.0 L 788.0 941.0 L 791.0 941.0 L 793.0 943.0 L 793.0 954.0 L 794.0 954.0 L 794.0 941.0 L 797.0 937.0 L 799.0 937.0 L 795.0 937.0 L 794.0 936.0 L 794.0 931.0 L 795.0 930.0 L 795.0 928.0 L 799.0 926.0 L 799.0 925.0 L 796.0 925.0 L 795.0 924.0 L 795.0 922.0 L 794.0 921.0 L 794.0 916.0 Z
M 745.0 921.0 L 745.0 928.0 L 746.0 928.0 L 746.0 925.0 L 748.0 923.0 L 755.0 923.0 L 756.0 922.0 L 774.0 922.0 L 776.0 924.0 L 776.0 928.0 L 777.0 928.0 L 777.0 923.0 L 778.0 922.0 L 777.0 921.0 L 765.0 921.0 L 762.0 919.0 L 761.0 916.0 L 760.0 916.0 L 760.0 920.0 L 759.0 921.0 Z
M 698.0 929.0 L 700.0 930.0 L 704.0 928.0 L 709.0 924.0 L 712.0 923.0 L 713.0 921.0 L 717.0 918.0 L 718.0 918.0 L 721.0 921.0 L 722.0 921.0 L 728.0 926.0 L 734.0 929.0 L 736.0 929.0 L 736.0 928.0 L 730.0 925.0 L 728.0 923.0 L 725.0 922.0 L 719.0 916.0 L 716.0 916.0 L 710.0 922.0 L 709.0 922.0 L 704.0 926.0 Z
M 655.0 933.0 L 656.0 935.0 L 659.0 934.0 L 662.0 931.0 L 663.0 931.0 L 671.0 923.0 L 671.0 922.0 L 673.0 920.0 L 675.0 920.0 L 677.0 922.0 L 677.0 923.0 L 683.0 929.0 L 684.0 929.0 L 690.0 934.0 L 692.0 935.0 L 693.0 934.0 L 693.0 932.0 L 692.0 932.0 L 689.0 929.0 L 685.0 927.0 L 679.0 921.0 L 679.0 920.0 L 677.0 919.0 L 677.0 918.0 L 675.0 916.0 L 673.0 916.0 L 672.0 918.0 L 660.0 930.0 L 659.0 930.0 Z
M 1128.0 791.0 L 1117.0 791.0 L 1113.0 793.0 L 1110.0 796.0 L 1109.0 796.0 L 1109.0 797.0 L 1105.0 801.0 L 1103.0 805.0 L 1101.0 804.0 L 1101.0 797.0 L 1100.0 796.0 L 1100.0 793.0 L 1099.0 792.0 L 1089.0 792.0 L 1089.0 861.0 L 1102.0 861.0 L 1102.0 849.0 L 1103.0 848.0 L 1103.0 817.0 L 1105.0 813.0 L 1114.0 804.0 L 1116.0 804.0 L 1117.0 803.0 L 1123.0 803.0 L 1124.0 804.0 L 1126.0 804.0 L 1127.0 802.0 L 1127.0 799.0 L 1129.0 795.0 L 1129.0 792.0 Z
M 1016.0 799.0 L 1016.0 801.0 L 1021.0 807.0 L 1021.0 808.0 L 1022.0 808.0 L 1027.0 804.0 L 1029.0 803.0 L 1031.0 803.0 L 1032.0 802.0 L 1034.0 802.0 L 1035.0 801.0 L 1044.0 801.0 L 1048.0 803.0 L 1052.0 807.0 L 1053.0 809.0 L 1053.0 811.0 L 1054.0 812.0 L 1054.0 817.0 L 1053.0 818.0 L 1049.0 818.0 L 1048.0 819.0 L 1041.0 819.0 L 1040.0 820.0 L 1036.0 820.0 L 1035.0 821.0 L 1032.0 821.0 L 1031.0 822.0 L 1026.0 823.0 L 1022.0 825.0 L 1020.0 827.0 L 1019.0 827.0 L 1014.0 833.0 L 1014.0 835.0 L 1013.0 836.0 L 1013.0 839.0 L 1012.0 840.0 L 1012.0 844.0 L 1013.0 845.0 L 1013.0 850.0 L 1015.0 854.0 L 1019.0 858.0 L 1020.0 858.0 L 1024.0 861.0 L 1026.0 861.0 L 1027.0 862.0 L 1038.0 862.0 L 1039.0 861.0 L 1041.0 861.0 L 1045.0 859.0 L 1047.0 857.0 L 1048.0 857.0 L 1053.0 852.0 L 1054.0 852.0 L 1055.0 853.0 L 1055.0 855.0 L 1056.0 856.0 L 1056.0 860.0 L 1057.0 861.0 L 1067.0 861.0 L 1067.0 811.0 L 1066.0 810.0 L 1066.0 806.0 L 1062.0 798.0 L 1061.0 798.0 L 1056.0 793.0 L 1054.0 793.0 L 1051.0 791.0 L 1033.0 791.0 L 1032.0 792.0 L 1027.0 793.0 L 1023.0 795.0 L 1021.0 797.0 Z
M 1054.0 827.0 L 1054.0 841.0 L 1051.0 846.0 L 1050.0 846.0 L 1047.0 849.0 L 1043.0 851.0 L 1040.0 851.0 L 1039.0 852.0 L 1035.0 852.0 L 1034.0 851.0 L 1031.0 851.0 L 1027.0 848.0 L 1025.0 841.0 L 1026.0 840.0 L 1026.0 837.0 L 1031.0 831.0 L 1035.0 829.0 L 1037.0 829.0 L 1041.0 827.0 L 1045.0 827.0 L 1046.0 826.0 L 1053.0 826.0 Z
M 759.0 792.0 L 757.0 791.0 L 747.0 791.0 L 743.0 793.0 L 741.0 795.0 L 740.0 795.0 L 733.0 804.0 L 731.0 803.0 L 731.0 797.0 L 730.0 796.0 L 730.0 792.0 L 720.0 792.0 L 719.0 793.0 L 719.0 860.0 L 720.0 861.0 L 732.0 861.0 L 732.0 819.0 L 734.0 816.0 L 734.0 814.0 L 736.0 812.0 L 736.0 811.0 L 742.0 805.0 L 746.0 803.0 L 755.0 803.0 L 756.0 804.0 L 757.0 802.0 L 757.0 799.0 L 758.0 798.0 L 758.0 795.0 L 759.0 794.0 Z
M 646.0 799.0 L 647.0 802.0 L 649.0 804.0 L 651.0 808.0 L 665.0 801.0 L 675.0 801.0 L 677.0 802.0 L 682.0 807.0 L 683.0 809.0 L 683.0 811.0 L 684.0 812.0 L 684.0 817.0 L 683.0 818.0 L 677.0 818.0 L 676.0 819.0 L 669.0 819.0 L 668.0 820.0 L 661.0 821.0 L 658.0 823.0 L 656.0 823.0 L 654.0 824.0 L 652.0 826.0 L 651.0 826.0 L 646.0 831.0 L 644.0 835.0 L 644.0 837.0 L 643.0 838.0 L 643.0 848.0 L 647.0 856.0 L 649.0 858.0 L 657.0 862.0 L 667.0 862.0 L 668.0 861.0 L 671.0 861.0 L 675.0 859.0 L 677.0 857.0 L 678.0 857.0 L 683.0 852.0 L 684.0 852.0 L 686.0 855.0 L 686.0 860.0 L 687.0 861.0 L 697.0 861.0 L 698.0 860.0 L 698.0 817.0 L 697.0 816.0 L 697.0 809.0 L 696.0 808.0 L 695.0 803.0 L 692.0 799.0 L 692.0 798.0 L 686.0 793.0 L 684.0 793.0 L 680.0 791.0 L 663.0 791.0 L 662.0 792.0 L 657.0 793.0 L 649.0 797.0 L 647.0 799.0 Z
M 683.0 826.0 L 684.0 827.0 L 684.0 843.0 L 677.0 849.0 L 673.0 851.0 L 664.0 852.0 L 663.0 851.0 L 661.0 851.0 L 656.0 846.0 L 656.0 844.0 L 655.0 843.0 L 655.0 840.0 L 657.0 836.0 L 662.0 831.0 L 668.0 828.0 L 670.0 828.0 L 671.0 827.0 L 675.0 827.0 L 676.0 826.0 Z
M 934.0 769.0 L 934.0 861.0 L 971.0 861.0 L 972.0 860.0 L 977.0 860.0 L 978.0 859.0 L 983.0 858.0 L 989.0 855.0 L 996.0 848.0 L 997.0 846.0 L 997.0 844.0 L 999.0 840.0 L 999.0 830.0 L 998.0 829.0 L 998.0 826.0 L 996.0 822.0 L 990.0 816.0 L 986.0 814.0 L 984.0 814.0 L 982.0 813.0 L 981.0 811.0 L 987.0 808.0 L 991.0 804.0 L 994.0 798.0 L 994.0 787.0 L 993.0 786.0 L 992.0 781.0 L 989.0 778.0 L 989.0 777.0 L 988.0 777.0 L 985.0 774.0 L 981.0 772.0 L 979.0 772.0 L 978.0 771.0 L 975.0 771.0 L 974.0 770.0 L 969.0 770.0 L 968.0 769.0 Z
M 947.0 819.0 L 948.0 818.0 L 969.0 818.0 L 970.0 819.0 L 974.0 819.0 L 980.0 822.0 L 984.0 826.0 L 985.0 828.0 L 985.0 831.0 L 986.0 832.0 L 986.0 836.0 L 985.0 837.0 L 985.0 840.0 L 979.0 847.0 L 975.0 849.0 L 972.0 849.0 L 971.0 850.0 L 964.0 850.0 L 963.0 851.0 L 953.0 851.0 L 952.0 850.0 L 949.0 851.0 L 947.0 849.0 Z
M 947.0 781.0 L 948.0 780.0 L 969.0 780.0 L 970.0 781.0 L 972.0 781.0 L 974.0 782.0 L 980.0 788.0 L 980.0 790.0 L 981.0 791.0 L 981.0 797.0 L 980.0 798.0 L 980.0 800.0 L 975.0 805.0 L 969.0 808.0 L 961.0 808.0 L 960.0 809.0 L 949.0 809.0 L 947.0 807.0 Z
M 564.0 769.0 L 564.0 772.0 L 563.0 773.0 L 564.0 774.0 L 564.0 776.0 L 563.0 777.0 L 563.0 785.0 L 564.0 786.0 L 564.0 861.0 L 600.0 861.0 L 601.0 860.0 L 606.0 860.0 L 607.0 859.0 L 610.0 859.0 L 611.0 858.0 L 613.0 858.0 L 617.0 856.0 L 619.0 854.0 L 620.0 854.0 L 625.0 849.0 L 629.0 841.0 L 629.0 828.0 L 628.0 827.0 L 628.0 825.0 L 626.0 823.0 L 626.0 822.0 L 620.0 816.0 L 618.0 816.0 L 616.0 814.0 L 614.0 814.0 L 611.0 812.0 L 612.0 810.0 L 615.0 809.0 L 621.0 803.0 L 624.0 797.0 L 624.0 788.0 L 623.0 787.0 L 623.0 784.0 L 621.0 780.0 L 616.0 775.0 L 615.0 775.0 L 613.0 773.0 L 611.0 772.0 L 609.0 772.0 L 608.0 771.0 L 605.0 771.0 L 604.0 770.0 L 597.0 770.0 L 596.0 769.0 Z
M 577.0 819.0 L 578.0 818.0 L 600.0 818.0 L 601.0 819.0 L 604.0 819.0 L 610.0 822.0 L 615.0 828.0 L 615.0 832.0 L 616.0 833.0 L 616.0 835.0 L 615.0 836.0 L 615.0 840.0 L 609.0 847.0 L 605.0 849.0 L 603.0 849.0 L 602.0 850.0 L 594.0 850.0 L 593.0 851.0 L 579.0 851.0 L 577.0 849.0 Z
M 577.0 781.0 L 578.0 780.0 L 598.0 780.0 L 599.0 781.0 L 602.0 781.0 L 604.0 782.0 L 609.0 787.0 L 610.0 789.0 L 610.0 798.0 L 608.0 802.0 L 604.0 806.0 L 602.0 806.0 L 601.0 807.0 L 598.0 807.0 L 597.0 808.0 L 578.0 808.0 L 577.0 807.0 Z
M 860.0 769.0 L 858.0 771.0 L 857.0 771.0 L 852.0 776.0 L 849.0 782.0 L 849.0 787.0 L 848.0 788.0 L 848.0 792.0 L 849.0 793.0 L 849.0 798.0 L 853.0 806.0 L 855.0 808.0 L 855.0 811.0 L 851.0 813.0 L 849.0 815.0 L 848.0 815.0 L 841.0 822.0 L 837.0 830.0 L 837.0 843.0 L 838.0 844.0 L 838.0 846.0 L 840.0 850.0 L 848.0 858.0 L 854.0 861.0 L 857.0 861.0 L 858.0 862.0 L 873.0 862.0 L 874.0 861.0 L 877.0 861.0 L 878.0 860.0 L 880.0 860.0 L 884.0 858.0 L 891.0 852.0 L 893.0 852.0 L 897.0 855.0 L 905.0 859.0 L 907.0 859.0 L 910.0 861.0 L 912.0 861.0 L 914.0 862.0 L 915.0 861.0 L 915.0 858.0 L 918.0 852.0 L 913.0 849.0 L 911.0 849.0 L 905.0 846.0 L 902.0 843.0 L 902.0 841.0 L 908.0 833.0 L 913.0 823.0 L 913.0 821.0 L 914.0 820.0 L 914.0 818.0 L 916.0 814.0 L 916.0 811.0 L 904.0 811.0 L 904.0 814.0 L 902.0 817.0 L 902.0 819.0 L 899.0 824.0 L 899.0 826.0 L 898.0 828.0 L 896.0 830.0 L 894.0 835.0 L 893.0 836.0 L 891.0 836.0 L 876.0 821.0 L 876.0 820.0 L 870.0 814.0 L 870.0 812.0 L 872.0 810.0 L 873.0 810.0 L 875.0 808.0 L 879.0 806.0 L 885.0 800.0 L 885.0 799.0 L 887.0 797.0 L 889.0 793.0 L 889.0 791.0 L 890.0 790.0 L 890.0 780.0 L 887.0 774.0 L 883.0 770.0 L 879.0 768.0 L 876.0 768.0 L 875.0 767.0 L 865.0 767.0 L 864.0 768.0 L 862.0 768.0 Z
M 859.0 820.0 L 861.0 820.0 L 862.0 822.0 L 865.0 825.0 L 865.0 826.0 L 868.0 829.0 L 868.0 830.0 L 883.0 844.0 L 883.0 845.0 L 879.0 849.0 L 877.0 849.0 L 874.0 851.0 L 871.0 851.0 L 870.0 852.0 L 864.0 852.0 L 863.0 851.0 L 861.0 851.0 L 857.0 849.0 L 851.0 843.0 L 851.0 841.0 L 850.0 840.0 L 850.0 832.0 L 852.0 828.0 L 854.0 826.0 L 854.0 825.0 Z
M 874.0 776.0 L 876.0 777.0 L 879.0 781.0 L 879.0 783.0 L 880.0 784.0 L 880.0 787.0 L 876.0 795.0 L 869.0 802.0 L 865.0 804.0 L 863.0 802.0 L 861.0 798.0 L 861.0 796.0 L 860.0 795.0 L 860.0 783.0 L 861.0 781.0 L 865.0 777.0 L 867.0 776.0 Z
M 771.0 763.0 L 771.0 856.0 L 770.0 857.0 L 771.0 858.0 L 771.0 861.0 L 772.0 862.0 L 773.0 861.0 L 784.0 861.0 L 784.0 849.0 L 783.0 848.0 L 784.0 846.0 L 784.0 844.0 L 785.0 842.0 L 789.0 838.0 L 789.0 837.0 L 795.0 831.0 L 796.0 831.0 L 798.0 833.0 L 802.0 841.0 L 806.0 846.0 L 807.0 849.0 L 809.0 851.0 L 810.0 854.0 L 812.0 856.0 L 813.0 859.0 L 815.0 861.0 L 830.0 861.0 L 825.0 855.0 L 824.0 852.0 L 816.0 841.0 L 815.0 838.0 L 813.0 836.0 L 813.0 835.0 L 811.0 833.0 L 811.0 832.0 L 809.0 830.0 L 807.0 826.0 L 804.0 823.0 L 804.0 820.0 L 806.0 818.0 L 806.0 817.0 L 808.0 816.0 L 808.0 815.0 L 814.0 809.0 L 814.0 808.0 L 820.0 802.0 L 820.0 801.0 L 827.0 794.0 L 827.0 793.0 L 813.0 793.0 L 801.0 806.0 L 801.0 807.0 L 793.0 816.0 L 793.0 817.0 L 790.0 820.0 L 790.0 821.0 L 786.0 825.0 L 785.0 825.0 L 784.0 824.0 L 784.0 763.0 Z
M 877.0 627.0 L 877.0 629.0 L 876.0 630.0 L 876.0 633.0 L 875.0 634.0 L 875.0 640.0 L 876.0 641.0 L 876.0 644.0 L 879.0 650.0 L 884.0 655.0 L 890.0 658.0 L 893.0 658.0 L 894.0 659.0 L 896.0 659.0 L 897.0 658.0 L 902.0 658.0 L 912.0 653.0 L 915.0 653.0 L 916.0 652.0 L 920.0 652.0 L 921.0 651.0 L 925.0 651.0 L 926.0 652.0 L 930.0 652.0 L 936.0 655.0 L 938.0 657.0 L 939.0 657.0 L 947.0 665.0 L 948.0 665.0 L 952.0 669.0 L 953.0 669.0 L 955.0 671.0 L 959.0 673.0 L 961.0 673.0 L 962.0 674.0 L 972.0 674.0 L 975.0 672.0 L 977.0 672.0 L 980.0 669.0 L 981.0 669.0 L 983.0 666.0 L 984.0 666.0 L 989.0 656.0 L 989.0 649.0 L 988.0 648.0 L 987.0 641.0 L 985.0 637.0 L 983.0 635.0 L 982.0 632.0 L 979.0 629.0 L 979.0 628.0 L 975.0 623.0 L 974.0 620.0 L 970.0 615.0 L 967.0 609.0 L 963.0 605.0 L 963.0 604.0 L 954.0 595.0 L 953.0 595.0 L 947.0 590.0 L 945.0 589.0 L 943.0 589.0 L 942.0 588.0 L 940.0 588.0 L 939.0 587.0 L 926.0 587.0 L 908.0 596.0 L 905.0 599.0 L 904.0 599.0 L 901.0 602.0 L 900.0 602.0 L 895.0 607.0 L 894.0 607.0 L 882.0 619.0 L 882.0 620.0 L 880.0 622.0 L 880.0 623.0 Z
M 963.0 641.0 L 966.0 641.0 L 968.0 642.0 L 970.0 645.0 L 970.0 649.0 L 967.0 652.0 L 962.0 652.0 L 959.0 648.0 L 959.0 645.0 Z
M 956.0 620.0 L 960.0 616.0 L 964.0 616.0 L 965.0 617.0 L 967.0 617.0 L 973.0 622.0 L 975.0 626.0 L 975.0 628.0 L 970.0 633.0 L 967.0 633.0 L 961.0 630.0 L 957.0 626.0 L 956.0 624.0 Z
M 985.0 569.0 L 981.0 572.0 L 978.0 578.0 L 978.0 582.0 L 977.0 583.0 L 977.0 588.0 L 978.0 589.0 L 978.0 593.0 L 979.0 594.0 L 979.0 597.0 L 982.0 603.0 L 985.0 606.0 L 985.0 607.0 L 987.0 608.0 L 990.0 611.0 L 992.0 612.0 L 1000.0 612.0 L 1002.0 611.0 L 1005.0 608.0 L 1007.0 604.0 L 1007.0 602.0 L 1008.0 601.0 L 1008.0 591.0 L 1007.0 590.0 L 1007.0 587.0 L 1006.0 586.0 L 1006.0 584.0 L 1003.0 578.0 L 998.0 572.0 L 997.0 572.0 L 993.0 569.0 Z
M 864.0 569.0 L 857.0 569.0 L 853.0 571.0 L 847.0 577.0 L 847.0 578.0 L 845.0 580.0 L 843.0 584.0 L 843.0 587.0 L 842.0 588.0 L 842.0 592.0 L 841.0 593.0 L 841.0 599.0 L 842.0 600.0 L 842.0 603.0 L 843.0 604.0 L 843.0 606.0 L 844.0 608.0 L 847.0 611.0 L 849.0 612.0 L 852.0 612.0 L 853.0 613.0 L 854.0 612.0 L 857.0 612.0 L 861.0 610.0 L 865.0 606.0 L 865.0 605.0 L 867.0 603.0 L 870.0 597.0 L 870.0 595.0 L 871.0 594.0 L 871.0 591.0 L 872.0 590.0 L 872.0 581.0 L 871.0 580.0 L 871.0 577.0 L 869.0 573.0 Z
M 945.0 527.0 L 941.0 529.0 L 937.0 533.0 L 935.0 537.0 L 935.0 539.0 L 934.0 540.0 L 934.0 543.0 L 933.0 544.0 L 933.0 555.0 L 934.0 556.0 L 934.0 559.0 L 935.0 560.0 L 936.0 565.0 L 939.0 569.0 L 939.0 570.0 L 945.0 575.0 L 947.0 575.0 L 948.0 576.0 L 953.0 576.0 L 957.0 573.0 L 958.0 573.0 L 962.0 567.0 L 962.0 565.0 L 964.0 561.0 L 964.0 547.0 L 963.0 546.0 L 963.0 543.0 L 962.0 542.0 L 962.0 540.0 L 960.0 536.0 L 958.0 534.0 L 958.0 533.0 L 952.0 528.0 L 950.0 528.0 L 949.0 527.0 Z
M 904.0 527.0 L 900.0 527.0 L 899.0 528.0 L 897.0 528.0 L 892.0 532.0 L 892.0 533.0 L 890.0 535.0 L 887.0 541.0 L 887.0 543.0 L 886.0 544.0 L 886.0 547.0 L 885.0 548.0 L 885.0 559.0 L 886.0 560.0 L 886.0 564.0 L 889.0 570.0 L 894.0 575.0 L 896.0 576.0 L 902.0 576.0 L 906.0 574.0 L 911.0 569.0 L 914.0 563.0 L 914.0 561.0 L 915.0 560.0 L 915.0 557.0 L 916.0 556.0 L 916.0 543.0 L 915.0 542.0 L 915.0 539.0 L 914.0 538.0 L 914.0 536.0 L 912.0 534.0 L 912.0 533.0 L 907.0 528.0 L 905.0 528.0 Z
M 799.0 385.0 L 793.0 385.0 L 792.0 386.0 L 786.0 386.0 L 785.0 387.0 L 779.0 387.0 L 778.0 388.0 L 769.0 388.0 L 768.0 389.0 L 748.0 389.0 L 747.0 388.0 L 733.0 388.0 L 732.0 387.0 L 728.0 387.0 L 728.0 388.0 L 730.0 390.0 L 732.0 394.0 L 732.0 396.0 L 734.0 400.0 L 734.0 404.0 L 735.0 405.0 L 735.0 411.0 L 736.0 412.0 L 736.0 421.0 L 737.0 422.0 L 737.0 435.0 L 738.0 436.0 L 738.0 458.0 L 739.0 459.0 L 739.0 504.0 L 740.0 505.0 L 740.0 577.0 L 739.0 578.0 L 739.0 600.0 L 738.0 601.0 L 738.0 622.0 L 737.0 623.0 L 737.0 634.0 L 736.0 635.0 L 736.0 644.0 L 735.0 645.0 L 735.0 651.0 L 734.0 652.0 L 734.0 656.0 L 733.0 657.0 L 732.0 662.0 L 730.0 665.0 L 730.0 667.0 L 736.0 667.0 L 737.0 666.0 L 744.0 666.0 L 745.0 665.0 L 780.0 665.0 L 781.0 666.0 L 791.0 666.0 L 792.0 667.0 L 798.0 667.0 L 799.0 668.0 L 799.0 666.0 L 797.0 663.0 L 797.0 660.0 L 796.0 659.0 L 796.0 649.0 L 795.0 648.0 L 795.0 626.0 L 794.0 625.0 L 794.0 585.0 L 793.0 584.0 L 793.0 542.0 L 794.0 541.0 L 794.0 539.0 L 798.0 535.0 L 802.0 533.0 L 804.0 533.0 L 804.0 531.0 L 803.0 530.0 L 803.0 506.0 L 804.0 505.0 L 798.0 502.0 L 794.0 498.0 L 794.0 496.0 L 793.0 495.0 L 793.0 473.0 L 794.0 472.0 L 794.0 433.0 L 795.0 432.0 L 795.0 396.0 L 796.0 395.0 L 796.0 390.0 L 799.0 386.0 Z" fill="#365d29" fill-rule="evenodd"/>
</svg>
